<?xml version="1.0" encoding="UTF-8" standalone="no"?>
<!-- Created with Inkscape (http://www.inkscape.org/) -->

<svg
   xmlns:svg="http://www.w3.org/2000/svg"
   xmlns="http://www.w3.org/2000/svg"
   version="1.1"
   width="250"
   height="50"
   viewBox="0 0 300 50"
   id="svg2"
   style="overflow:visible">
  <defs
     id="defs4" />
  <g
     transform="matrix(0.98871931,0,0,0.98871931,0.90112805,1.0977107)"
     id="g2826">
    <g
       id="g8"
       style="fill:#00000;stroke:none">
      <g
         id="g10"
         style="fill:#00000;stroke:none">
        <path
           d="m 194.35,42.6 106.4,0 0,0.65 -106.4,0 0,-0.65 z m -30.25,-4.75 7.3,0 0,0.7 -6.55,0 0,4.05 5.9,0 0,0.7 -5.9,0 0,4.15 6.65,0 0,0.7 -7.4,0 0,-10.3 z m 21.8,10.3 -6.8,0 0,-10.3 0.75,0 0,9.6 6.05,0 0,0.7 z m -68.85,-5.55 6.6,0 0,-4.75 0.75,0 0,10.3 -0.75,0 0,-4.85 -6.6,0 0,4.85 -0.75,0 0,-10.3 0.75,0 0,4.75 z m 24.65,0.45 0,-0.05 c -0.16667,-2.566666 -1.40001,-4.066666 -3.7,-4.5 l -0.7,-0.1 -0.7,0.1 c -2.26667,0.433334 -3.48335,1.933334 -3.65,4.5 0.2,2.833332 1.66667,4.38333 4.4,4.65 2.73333,-0.266665 4.18333,-1.799998 4.35,-4.6 z m -7.05,-4.55 c 0.73333,-0.399998 1.63334,-0.666664 2.7,-0.8 1.06667,0.133336 1.96667,0.400002 2.7,0.8 1.53334,0.866665 2.35001,2.366665 2.45,4.5 -0.16667,3.2 -1.90001,4.983334 -5.2,5.35 -3.26667,-0.366666 -4.98335,-2.133333 -5.15,-5.3 0.1,-2.16667 0.93333,-3.683335 2.5,-4.55 z m -2.5,4.55 0,-0.05 z m 20.9,5.1 -0.75,0 0,-9.6 -3.6,0 0,-0.7 7.95,0 0,0.7 -3.6,0 0,9.6 z m -83.1,-26.2 19.1,0 0,2.05 -21.55,0 0,-23.45 21.15,0 0,2.05 -18.7,0 0,8.7 17.35,0 0,2.05 -17.35,0 0,8.6 z M 1.5,42.6 l 104.9,0 0,0.65 -104.9,0 0,-0.65 z m 34.85,-31.3 19.3,0 0,-10.75 2.45,0 0,23.45 -2.45,0 0,-10.65 -19.3,0 0,10.65 -2.45,0 0,-23.45 2.45,0 0,10.75 z M 0.1,0.55 l 29.1,0 0,2.05 -13.3,0 0,21.4 -2.45,0 0,-21.4 -13.35,0 0,-2.05 z"
           id="path12"
           style="fill:#DE1262;stroke:none" />
        <path
           d="m 279.2,0.55 19.85,20.05 0,-20.05 2.45,0 0,23.45 -2.45,0 -22.95,-23.45 3.1,0 z m -0.5,23.45 -2.45,0 0,-19.85 2.45,2.5 0,17.35 z M 265.35,12.3 c -0.1,-3.6 -1.16668,-6.2000006 -3.2,-7.8 -2.03333,-1.6333334 -4.51667,-2.4333334 -7.45,-2.4 -7,0.3666667 -10.55,3.766667 -10.65,10.2 -0.0333,6.266668 3.51667,9.666667 10.65,10.2 6.53334,0.03333 10.08333,-3.366667 10.65,-10.2 z M 254.7,0 c 8.26667,0.20000002 12.66667,4.3 13.2,12.3 -0.53333,8.033334 -4.93333,12.133334 -13.2,12.3 -8.56667,-0.433332 -12.96666,-4.533332 -13.2,-12.3 0.26666,-7.766667 4.66666,-11.86666756 13.2,-12.3 z m -21.85,24 -2.45,0 0,-21 -12.5,12.3 -14.95,-14.75 3.15,0 11.85,11.65 11.8,-11.65 3.1,0 0,23.45 z M 203.1,4.05 l 2.45,2.4 0,17.55 -2.45,0 0,-19.95 z m -32.25,-3.5 16.45,0 c 4.43334,0.3333333 6.68334,2.4666664 6.75,6.4 -0.16667,4 -2.41667,6.133334 -6.75,6.4 l -2.35,0 9.4,10.65 -3.3,0 -9.35,-10.65 -6,0 0,-2.05 11.1,0 c 3.06667,-0.166667 4.63333,-1.616667 4.7,-4.35 -0.0667,-2.7666666 -1.63333,-4.2166667 -4.7,-4.35 l -13.5,0 0,21.4 -2.45,0 0,-23.45 z m -19.55,10.75 1.1,2.05 -9.9,0 -6.5,10.7 -2.8,0 14.8,-23.85 2.6,0 13.4,23.85 -2.9,0 -11.95,-21.55 -5.4,8.8 7.55,0 z m -27.4,-10.75 2.45,0 0,23.45 -2.45,0 0,-23.45 z M 101.45,24 l 0,-23.45 2.45,0 0,10.75 17.55,0 0,2.05 -17.55,0 0,10.65 -2.45,0 z"
           id="path14"
           style="fill:#00000;stroke:none" />
      </g>
    </g>
  </g>
</svg>
