<svg width="102" height="32" viewBox="0 0 102 32" fill="none" xmlns="http://www.w3.org/2000/svg">
<path d="M29.3864 22.7101C29.2429 22.3073 29.0752 21.9176 28.9157 21.5565C28.6701 21.0011 28.4129 20.4446 28.1641 19.9067L28.1444 19.864C25.9255 15.0589 23.5439 10.1881 21.0659 5.38701L20.9607 5.18316C20.7079 4.69289 20.4466 4.18596 20.1784 3.68786C19.8604 3.0575 19.4745 2.4636 19.0276 1.91668C18.5245 1.31651 17.8956 0.833822 17.1853 0.502654C16.475 0.171486 15.7005 -9.83959e-05 14.9165 4.23316e-08C14.1325 9.84805e-05 13.3581 0.171877 12.6478 0.503224C11.9376 0.834571 11.3088 1.31742 10.8059 1.91771C10.3595 2.46476 9.97383 3.05853 9.65572 3.68858C9.38521 4.19115 9.12145 4.70278 8.8664 5.19757L8.76872 5.38696C6.29061 10.1884 3.90903 15.0592 1.69015 19.8639L1.65782 19.9338C1.41334 20.463 1.16057 21.0102 0.919073 21.5563C0.75949 21.9171 0.592009 22.3065 0.448355 22.7103C0.0369063 23.8104 -0.094204 24.9953 0.0668098 26.1585C0.237562 27.334 0.713008 28.4447 1.44606 29.3804C2.17911 30.3161 3.14434 31.0444 4.24614 31.4932C5.07835 31.8299 5.96818 32.002 6.86616 32C7.14824 31.9999 7.43008 31.9835 7.71027 31.9509C8.846 31.8062 9.94136 31.4366 10.9321 30.8639C12.2317 30.1338 13.5152 29.0638 14.9173 27.5348C16.3194 29.0638 17.6029 30.1338 18.9025 30.8639C19.8932 31.4367 20.9886 31.8062 22.1243 31.9509C22.4045 31.9835 22.6864 31.9999 22.9685 32C23.8664 32.002 24.7561 31.8299 25.5883 31.4932C26.6901 31.0444 27.6554 30.3161 28.3885 29.3804C29.1216 28.4447 29.5971 27.3341 29.7679 26.1585C29.9287 24.9952 29.7976 23.8103 29.3864 22.7101ZM14.9173 24.377C13.1816 22.1769 12.0678 20.1338 11.677 18.421C11.5169 17.7792 11.4791 17.1131 11.5656 16.4573C11.6339 15.9766 11.8105 15.5176 12.0821 15.1148C12.4163 14.6814 12.8458 14.3304 13.3374 14.0889C13.829 13.8475 14.3696 13.7219 14.9175 13.7219C15.4655 13.722 16.006 13.8476 16.4976 14.0892C16.9892 14.3307 17.4186 14.6817 17.7528 15.1151C18.0244 15.5181 18.201 15.9771 18.2693 16.4579C18.3556 17.114 18.3177 17.7803 18.1573 18.4223C17.7661 20.1349 16.6526 22.1774 14.9173 24.377ZM27.7406 25.8689C27.6212 26.6908 27.2887 27.4674 26.7762 28.1216C26.2636 28.7759 25.5887 29.2852 24.8183 29.599C24.0393 29.9111 23.1939 30.0217 22.3607 29.9205C21.4946 29.8089 20.6599 29.5239 19.9069 29.0824C18.7501 28.4325 17.5791 27.4348 16.2614 25.9712C18.3591 23.3846 19.669 21.0005 20.154 18.877C20.3723 17.984 20.4196 17.0579 20.2935 16.1475C20.1791 15.3632 19.8879 14.615 19.4419 13.9593C18.9194 13.2519 18.2378 12.6768 17.452 12.2805C16.6661 11.8842 15.798 11.6777 14.9175 11.6777C14.0371 11.6777 13.1689 11.8841 12.383 12.2803C11.5971 12.6765 10.9155 13.2515 10.393 13.9589C9.94707 14.6144 9.65591 15.3624 9.5414 16.1465C9.41524 17.0566 9.4623 17.9822 9.68011 18.8749C10.1648 20.9993 11.4748 23.384 13.5732 25.9714C12.2555 27.4348 11.0845 28.4325 9.92769 29.0825C9.17468 29.5239 8.34007 29.809 7.47395 29.9205C6.64065 30.0217 5.79525 29.9111 5.0162 29.599C4.24581 29.2852 3.57092 28.7759 3.05838 28.1217C2.54585 27.4674 2.21345 26.6908 2.09411 25.8689C1.97932 25.0334 2.07701 24.1825 2.37818 23.3946C2.49266 23.0728 2.62663 22.757 2.7926 22.3818C3.0274 21.851 3.27657 21.3115 3.51759 20.7898L3.54996 20.7197C5.75643 15.9419 8.12481 11.0982 10.5894 6.32294L10.6875 6.13283C10.9384 5.64601 11.1979 5.14267 11.4597 4.6563C11.7101 4.15501 12.0132 3.68171 12.3639 3.2444C12.6746 2.86903 13.0646 2.56681 13.5059 2.35934C13.9473 2.15186 14.4291 2.04426 14.9169 2.04422C15.4047 2.04418 15.8866 2.15171 16.3279 2.35911C16.7693 2.56651 17.1593 2.86867 17.4701 3.24399C17.821 3.68097 18.1242 4.15411 18.3744 4.65538C18.6338 5.13742 18.891 5.63623 19.1398 6.11858L19.2452 6.32315C21.7097 11.0979 24.078 15.9415 26.2847 20.7201L26.3046 20.7631C26.5498 21.2936 26.8033 21.8419 27.042 22.382C27.2082 22.7577 27.3424 23.0738 27.4566 23.3944C27.7576 24.1824 27.8553 25.0333 27.7406 25.8689Z" fill="red"/>
<path d="M41.3962 24.7288C40.5971 24.7288 39.862 24.5686 39.1907 24.2483C38.5195 23.928 37.9442 23.4795 37.4327 22.9029C36.9213 22.3264 36.5378 21.6537 36.2501 20.917C35.9624 20.1482 35.8345 19.3154 35.8345 18.4185C35.8345 17.5216 35.9944 16.6567 36.282 15.8879C36.5697 15.1192 36.9852 14.4465 37.4967 13.8379C38.0081 13.2613 38.6154 12.7808 39.3186 12.4605C40.0218 12.1402 40.757 11.98 41.588 11.98C42.3871 11.98 43.0903 12.1402 43.7296 12.4925C44.3689 12.8129 44.8803 13.2933 45.2958 13.9019L45.3917 12.3324H48.3324V24.4084H45.3917L45.2958 22.6467C44.8803 23.2873 44.3369 23.7998 43.6337 24.1842C42.9944 24.5366 42.2273 24.7288 41.3962 24.7288ZM42.1634 21.8459C42.7387 21.8459 43.2501 21.6857 43.7296 21.3974C44.1771 21.0771 44.5287 20.6607 44.8164 20.1482C45.0721 19.6357 45.1999 19.0271 45.1999 18.3544C45.1999 17.6817 45.0721 17.0731 44.8164 16.5606C44.5607 16.0481 44.1771 15.6317 43.7296 15.3114C43.2821 14.991 42.7387 14.8629 42.1634 14.8629C41.588 14.8629 41.0766 15.0231 40.5971 15.3114C40.1497 15.6317 39.7981 16.0481 39.5104 16.5606C39.2547 17.0731 39.1268 17.6817 39.1268 18.3544C39.1268 19.0271 39.2547 19.6357 39.5104 20.1482C39.7661 20.6607 40.1497 21.0771 40.5971 21.3974C41.0766 21.6857 41.588 21.8459 42.1634 21.8459ZM53.3507 9.06505C53.3507 9.4174 53.2868 9.73773 53.1269 9.99398C52.9671 10.2502 52.7434 10.4745 52.4557 10.6347C52.168 10.7948 51.8484 10.8589 51.5288 10.8589C51.2091 10.8589 50.8895 10.7948 50.6018 10.6347C50.3141 10.4745 50.0904 10.2502 49.9306 9.99398C49.7707 9.70569 49.7068 9.4174 49.7068 9.06505C49.7068 8.7127 49.7707 8.39238 49.9306 8.13612C50.0904 7.84783 50.3141 7.65564 50.6018 7.49548C50.8895 7.33532 51.2091 7.27126 51.5288 7.27126C51.8484 7.27126 52.168 7.33532 52.4557 7.49548C52.7434 7.65564 52.9671 7.87987 53.1269 8.13612C53.2548 8.39238 53.3507 8.68067 53.3507 9.06505ZM49.9306 24.3764V12.3003H53.1269V24.3764H49.9306ZM61.6613 15.4715V15.5035C61.5015 15.4395 61.3097 15.4074 61.1498 15.3754C60.9581 15.3434 60.7982 15.3434 60.6065 15.3434C59.7115 15.3434 59.0402 15.5996 58.5927 16.1442C58.1133 16.6887 57.8895 17.4575 57.8895 18.4505V24.3764H54.6932V12.3003H57.6338L57.7297 14.1262C58.0494 13.4855 58.4329 13.005 58.9763 12.6527C59.4877 12.3003 60.095 12.1402 60.7982 12.1402C61.022 12.1402 61.2457 12.1722 61.4375 12.2042C61.5334 12.2363 61.5973 12.2363 61.6613 12.2683V15.4715ZM62.9398 24.3764V7.33532H66.1362V13.8379C66.5837 13.2613 67.0951 12.8128 67.7344 12.4605C68.3737 12.1402 69.0769 11.948 69.876 11.948C70.675 11.948 71.4102 12.1081 72.0814 12.4285C72.7527 12.7488 73.328 13.1972 73.8395 13.7738C74.3509 14.3504 74.7344 15.0231 75.0221 15.7598C75.3098 16.5286 75.4376 17.3614 75.4376 18.2583C75.4376 19.1552 75.2778 20.0201 74.9902 20.7888C74.7025 21.5576 74.287 22.2303 73.7755 22.8389C73.2641 23.4155 72.6568 23.8959 71.9536 24.2163C71.2504 24.5366 70.5152 24.6967 69.6842 24.6967C68.8851 24.6967 68.1819 24.5366 67.5426 24.1842C66.9033 23.8639 66.3919 23.3834 65.9764 22.7748L65.8805 24.3444L62.9398 24.3764ZM69.1088 21.8459C69.6842 21.8459 70.1956 21.6857 70.675 21.3974C71.1225 21.0771 71.4741 20.6607 71.7618 20.1482C72.0175 19.6357 72.1454 19.0271 72.1454 18.3544C72.1454 17.6817 72.0175 17.0731 71.7618 16.5606C71.4741 16.0481 71.1225 15.6317 70.675 15.3114C70.2276 14.991 69.6842 14.8629 69.1088 14.8629C68.5335 14.8629 68.0221 15.0231 67.5426 15.3114C67.0951 15.6317 66.7435 16.0481 66.4558 16.5606C66.2001 17.0731 66.0723 17.6817 66.0723 18.3544C66.0723 19.0271 66.2001 19.6357 66.4558 20.1482C66.7115 20.6607 67.0951 21.0771 67.5426 21.3974C68.0221 21.6857 68.5335 21.8459 69.1088 21.8459ZM76.6523 24.3764V12.3003H79.5929L79.6888 13.8699C80.0404 13.2933 80.5199 12.8449 81.1272 12.4925C81.7345 12.1402 82.4377 11.98 83.2368 11.98C84.1318 11.98 84.8989 12.2042 85.5382 12.6207C86.2094 13.0371 86.7209 13.6457 87.0725 14.4145C87.4241 15.1832 87.6158 16.1121 87.6158 17.1692V24.4084H84.4195V17.5856C84.4195 16.7528 84.2277 16.0801 83.8441 15.5996C83.4606 15.1192 82.9491 14.8629 82.2779 14.8629C81.7984 14.8629 81.3829 14.959 80.9993 15.1832C80.6477 15.4074 80.3601 15.6957 80.1363 16.1122C79.9126 16.4965 79.8167 16.977 79.8167 17.4575V24.3764H76.6523ZM89.214 24.3764V7.33532H92.4104V13.8379C92.8579 13.2613 93.3693 12.8128 94.0086 12.4605C94.6479 12.1402 95.3511 11.948 96.1502 11.948C96.9493 11.948 97.6844 12.1081 98.3557 12.4285C99.0269 12.7488 99.6022 13.1972 100.113 13.7738C100.625 14.3504 101.008 15.0231 101.296 15.7598C101.584 16.5286 101.711 17.3614 101.711 18.2583C101.711 19.1552 101.552 20.0201 101.264 20.7888C100.976 21.5576 100.561 22.2303 100.049 22.8389C99.5383 23.4155 98.931 23.8959 98.2278 24.2163C97.5246 24.5366 96.7894 24.6967 95.9584 24.6967C95.1593 24.6967 94.4561 24.5366 93.8168 24.1842C93.1775 23.8639 92.6661 23.3834 92.2506 22.7748L92.1547 24.3444L89.214 24.3764ZM95.415 21.8459C95.9903 21.8459 96.5018 21.6857 96.9812 21.3974C97.4287 21.0771 97.7803 20.6607 98.068 20.1482C98.3237 19.6357 98.4516 19.0271 98.4516 18.3544C98.4516 17.6817 98.3237 17.0731 98.068 16.5606C97.8123 16.0481 97.4287 15.6317 96.9812 15.3114C96.5337 14.991 95.9903 14.8629 95.415 14.8629C94.8396 14.8629 94.3282 15.0231 93.8488 15.3114C93.4013 15.6317 93.0497 16.0481 92.762 16.5606C92.4743 17.0731 92.3784 17.6817 92.3784 18.3544C92.3784 19.0271 92.5063 19.6357 92.762 20.1482C93.0177 20.6607 93.4013 21.0771 93.8488 21.3974C94.3282 21.6857 94.8077 21.8459 95.415 21.8459Z" fill="red"/>
</svg>
